<svg xmlns="http://www.w3.org/2000/svg" viewBox="0 0 410 404">
  <defs>
    <linearGradient id="vite-b" x1="100%" y1="0%" x2="50%" y2="100%">
      <stop offset="0%" stop-color="#bd34fe"/>
      <stop offset="100%" stop-color="#41d1ff"/>
    </linearGradient>
    <linearGradient id="vite-c" x1="100%" y1="100%" x2="50%" y2="0%">
      <stop offset="0%" stop-color="#41d1ff"/>
      <stop offset="100%" stop-color="#bd34fe"/>
    </linearGradient>
    <filter id="vite-a" x="-20%" y="-20%" width="140%" height="140%">
      <feDropShadow dx="0" dy="0" stdDeviation="10" flood-color="#bd34fe" flood-opacity=".5"/>
    </filter>
  </defs>
  <path d="M399.641 59.525l-183.998 329.02c-3.799 6.793-13.559 6.833-17.417.068L10.582 59.507C6.38 52.19 11.68 43.266 19.876 43.266h370.767c8.196 0 13.496 8.924 9.998 16.259z" fill="url(#vite-b)"/>
  <path d="M292.965 1.574L156.801 28.255c-8.019 1.462-11.107 9.747-5.551 15.485l66.908 69.121c5.556 5.738 14.532 5.118 19.215-1.31l55.103-75.817c4.683-6.428 1.48-15.36-6.501-16.16z" fill="url(#vite-c)"/>
  <path d="M245.194 14.926l-101.458 18.554c-8.015 1.465-11.107 9.747-5.551 15.485l66.908 69.121c5.556 5.738 14.532 5.118 19.215-1.31l55.103-75.817c4.683-6.428 1.48-15.36-6.501-16.16z" fill="url(#vite-b)"/>
  <path d="M163.556 206.036L22.658 64.64c-3.896-3.896-10.562-1.317-10.562 4.37v181.662c0 5.523 4.477 10 10 10h181.662c5.687 0 8.266-6.666 4.37-10.562L163.556 206.036z" fill="url(#vite-b)" opacity="0" style="mix-blend-mode:multiply"/>
  <path d="M163.556 206.036L22.658 64.64c-3.896-3.896-10.562-1.317-10.562 4.37v181.662c0 5.523 4.477 10 10 10h181.662c5.687 0 8.266-6.666 4.37-10.562L163.556 206.036z" fill="#fff" opacity="0.15"/>
  <path d="M185.432.063L99.16 17.501a3 3 0 00-2.292 3.124l7.979 136.367a3 3 0 003.924 2.706l59.738-15.036a3 3 0 012.292 3.124l-7.979 136.367a3 3 0 01-3.924 2.706L82.734 294.4a3 3 0 00-3.924 2.706l-7.979 136.367a3 3 0 003.924 2.706l136.367-7.979a3 3 0 002.706-3.924l-7.979-136.367a3 3 0 00-3.924-2.706l-59.738 15.036a3 3 0 01-2.292-3.124l7.979-136.367a3 3 0 013.924-2.706l59.738-15.036a3 3 0 012.292 3.124l-7.979 136.367a3 3 0 01-3.924 2.706l-136.367 7.979a3 3 0 01-2.706-3.924l7.979-136.367a3 3 0 013.924-2.706l136.367-7.979a3 3 0 002.706-3.924L189.356 2.769a3 3 0 00-3.924-2.706z" fill="#ffc61e"/>
  <path d="M185.432.063L99.16 17.501a3 3 0 00-2.292 3.124l7.979 136.367a3 3 0 003.924 2.706l59.738-15.036a3 3 0 012.292 3.124l-7.979 136.367a3 3 0 01-3.924 2.706L82.734 294.4a3 3 0 00-3.924 2.706l-7.979 136.367a3 3 0 003.924 2.706l136.367-7.979a3 3 0 002.706-3.924l-7.979-136.367a3 3 0 00-3.924-2.706l-59.738 15.036a3 3 0 01-2.292-3.124l7.979-136.367a3 3 0 013.924-2.706l59.738-15.036a3 3 0 012.292 3.124l-7.979 136.367a3 3 0 01-3.924 2.706l-136.367 7.979a3 3 0 01-2.706-3.924l7.979-136.367a3 3 0 013.924-2.706l136.367-7.979a3 3 0 002.706-3.924L189.356 2.769a3 3 0 00-3.924-2.706z" fill="url(#vite-b)" opacity="0.3" style="mix-blend-mode:multiply"/>
</svg>